<svg width="20" height="16" viewBox="0 0 20 16" fill="none" xmlns="http://www.w3.org/2000/svg">
<path d="M16.8069 1.92332C15.5323 1.33826 14.1862 0.92357 12.8033 0.689941C12.6271 0.993444 12.4315 1.40488 12.294 1.72775C10.8234 1.5124 9.32929 1.5124 7.85867 1.72775C7.72122 1.40488 7.51458 0.993444 7.34853 0.689941C5.96438 0.920815 4.6173 1.33561 3.34303 1.92332C0.808923 5.66314 0.123506 9.31532 0.466676 12.9177C1.95154 14.0079 3.61026 14.8388 5.37253 15.3752C5.76842 14.8408 6.11896 14.2743 6.42049 13.6815C5.84208 13.4656 5.29504 13.2018 4.76553 12.8882C4.90298 12.7904 5.03951 12.6824 5.16681 12.5745C8.35866 14.0339 11.8153 14.0339 14.9675 12.5745C15.1049 12.6824 15.2322 12.7904 15.3687 12.8882C14.8401 13.2018 14.2922 13.4656 13.7147 13.6815C14.0159 14.2743 14.3662 14.8408 14.7617 15.3752C16.5246 14.8404 18.1836 14.0093 19.6676 12.9177C20.0892 8.74798 19.0015 5.1244 16.8078 1.92332H16.8069ZM6.8596 10.6954C5.9002 10.6954 5.117 9.82361 5.117 8.7572C5.117 7.68987 5.88083 6.81811 6.86052 6.81811C7.82915 6.81811 8.6225 7.68987 8.6022 8.7572C8.6022 9.82361 7.82915 10.6954 6.8596 10.6954ZM13.2931 10.6954C12.3337 10.6954 11.5496 9.82361 11.5496 8.7572C11.5496 7.68987 12.3134 6.81811 13.2931 6.81811C14.2617 6.81811 15.0551 7.68987 15.0357 8.7572C15.0357 9.82361 14.2719 10.6945 13.2922 10.6945L13.2931 10.6954Z" fill="#062F5B"/>
</svg>
