<svg width="21" height="17" viewBox="0 0 21 17" fill="none" xmlns="http://www.w3.org/2000/svg">
<path fill-rule="evenodd" clip-rule="evenodd" d="M18.1004 0.237863C18.3368 0.138361 18.5956 0.104044 18.8498 0.138482C19.1039 0.17292 19.3442 0.274856 19.5456 0.433679C19.747 0.592501 19.9022 0.802405 19.995 1.04154C20.0877 1.28068 20.1147 1.54031 20.0731 1.7934L17.9033 14.9543C17.6929 16.2238 16.3 16.9518 15.1357 16.3194C14.1618 15.7904 12.7153 14.9753 11.4143 14.1248C10.7637 13.6991 8.771 12.3359 9.01591 11.3658C9.22637 10.5364 12.5747 7.41956 14.488 5.5665C15.239 4.83847 14.8965 4.4185 14.0097 5.08816C11.8065 6.75085 8.27162 9.27932 7.10257 9.99108C6.07129 10.6187 5.53364 10.7258 4.89076 10.6187C3.71789 10.4235 2.63016 10.1212 1.74237 9.75287C0.542711 9.2554 0.601067 7.60611 1.74141 7.12586L18.1004 0.237863Z" fill="#00274E"/>
</svg>
