<svg width="24" height="14" viewBox="0 0 24 14" fill="none" xmlns="http://www.w3.org/2000/svg">
<path d="M22.2949 13.9125H19.8238C18.8889 13.9125 18.6072 13.1553 16.9313 11.4783C15.4667 10.0667 14.8481 9.89121 14.4776 9.89121C13.9652 9.89121 13.8254 10.032 13.8254 10.7373V12.9603C13.8254 13.5615 13.6304 13.9136 12.0596 13.9136C10.5356 13.8112 9.05784 13.3483 7.74788 12.5629C6.43792 11.7775 5.3333 10.6921 4.525 9.39613C2.60575 7.0074 1.27035 4.2038 0.625 1.20829C0.625 0.837791 0.765833 0.501958 1.47217 0.501958H3.94217C4.577 0.501958 4.80558 0.784708 5.05475 1.43796C6.254 4.96746 8.30042 8.03763 9.13133 8.03763C9.44983 8.03763 9.5885 7.89679 9.5885 7.10271V3.46704C9.48342 1.80846 8.60267 1.66871 8.60267 1.06854C8.61381 0.910203 8.68624 0.762444 8.80457 0.656651C8.92291 0.550857 9.07782 0.495364 9.23642 0.501958H13.1191C13.6499 0.501958 13.8254 0.766291 13.8254 1.40112V6.30863C13.8254 6.83838 14.0529 7.01387 14.2132 7.01387C14.5317 7.01387 14.7766 6.83837 15.3605 6.25554C16.6121 4.72911 17.6347 3.02847 18.396 1.20721C18.4739 0.988541 18.6212 0.801364 18.8155 0.674227C19.0097 0.54709 19.2402 0.486971 19.4717 0.503041H21.9428C22.6838 0.503041 22.8409 0.873542 22.6838 1.40221C21.7851 3.41549 20.673 5.32659 19.3667 7.10271C19.1002 7.50896 18.994 7.72021 19.3667 8.19687C19.6115 8.56737 20.4782 9.29104 21.0599 9.97896C21.9071 10.824 22.6102 11.8011 23.1421 12.8715C23.3544 13.5605 23.0002 13.9125 22.2949 13.9125Z" fill="#062F5B"/>
</svg>
