<svg width="21" height="13" viewBox="0 0 21 13" fill="none" xmlns="http://www.w3.org/2000/svg">
<path fill-rule="evenodd" clip-rule="evenodd" d="M19.84 1.2045C19.9759 0.72675 19.84 0.375 19.1892 0.375H17.0405C16.4938 0.375 16.2416 0.678625 16.1049 1.01375C16.1049 1.01375 15.0122 3.81025 13.4643 5.62675C12.9634 6.1535 12.7358 6.32063 12.4624 6.32063C12.3257 6.32063 12.1202 6.1535 12.1202 5.67488V1.2045C12.1202 0.6305 11.9696 0.375 11.5145 0.375H8.13556C7.79422 0.375 7.58877 0.641 7.58877 0.893875C7.58877 1.43725 8.36311 1.56325 8.44251 3.09275V6.416C8.44251 7.14488 8.31727 7.277 8.04388 7.277C7.31537 7.277 5.54321 4.46738 4.49138 1.25262C4.28756 0.627 4.08129 0.375 3.53204 0.375H1.38171C0.767802 0.375 0.64502 0.678625 0.64502 1.01375C0.64502 1.6105 1.37353 4.575 4.0379 8.49588C5.81415 11.1734 8.31482 12.625 10.5928 12.625C11.959 12.625 12.1276 12.303 12.1276 11.7474V9.7235C12.1276 9.07863 12.2569 8.95 12.69 8.95C13.0092 8.95 13.5552 9.118 14.8305 10.4086C16.2875 11.939 16.5273 12.625 17.3475 12.625H19.4962C20.1101 12.625 20.4179 12.303 20.2411 11.666C20.0463 11.0325 19.3505 10.1129 18.428 9.02175C17.927 8.4005 17.1756 7.73113 16.9472 7.396C16.6288 6.96638 16.7197 6.77475 16.9472 6.39238C16.9472 6.39238 19.5666 2.51963 19.8392 1.2045H19.84Z" fill="#FFC300"/>
</svg>
